<svg width="48" height="48" viewBox="0 0 48 48" fill="none" xmlns="http://www.w3.org/2000/svg">
  <rect width="48" height="48" rx="8" fill="url(#gradient1)"/>
  <defs>
    <linearGradient id="gradient1" x1="0%" y1="0%" x2="100%" y2="100%">
      <stop offset="0%" style="stop-color:#3B82F6;stop-opacity:1" />
      <stop offset="100%" style="stop-color:#8B5CF6;stop-opacity:1" />
    </linearGradient>
  </defs>
  <path d="M12 14h8v2h-8v-2zm0 4h8v2h-8v-2zm0 4h6v2h-6v-2zm10-8h2v2h-2v-2zm0 4h2v2h-2v-2zm0 4h2v2h-2v-2zm-4 0h4v2h-4v-2zm-6-6h12v4h-12v-4z" fill="white"/>
  <circle cx="16" cy="30" r="2" fill="white"/>
  <circle cx="32" cy="30" r="2" fill="white"/>
  <path d="M18 20h2v2h-2zm4 0h2v2h-2zm4 0h2v2h-2z" fill="white"/>
</svg>